<svg xmlns="http://www.w3.org/2000/svg" width="24" height="24" fill="none" id="user-network"><path fill="#000" fill-rule="evenodd" d="M17 15a1 1 0 1 0 0 2 1 1 0 0 0 0-2zm-2 1a2 2 0 1 1 4 0 2 2 0 0 1-4 0zM7 5a1 1 0 1 0 0 2 1 1 0 0 0 0-2zM5 6a2 2 0 1 1 4 0 2 2 0 0 1-4 0z" clip-rule="evenodd"></path><path fill="#000" fill-rule="evenodd" d="M17 18a3.502 3.502 0 0 0-3.344 2.463l-.955-.295a4.502 4.502 0 0 1 8.599 0l-.955.296A3.502 3.502 0 0 0 17 18zM7 8a3.502 3.502 0 0 0-3.344 2.463l-.955-.295a4.502 4.502 0 0 1 8.599 0l-.955.296A3.502 3.502 0 0 0 7 8z" clip-rule="evenodd"></path><path fill="#000" fill-rule="evenodd" d="M17 12.5a4.5 4.5 0 1 0 0 9 4.5 4.5 0 0 0 0-9zM11.5 17a5.5 5.5 0 1 1 11 0 5.5 5.5 0 0 1-11 0zM7 2.5a4.5 4.5 0 1 0 0 9 4.5 4.5 0 0 0 0-9zM1.5 7a5.5 5.5 0 1 1 11 0 5.5 5.5 0 0 1-11 0zM6 15.5a1.5 1.5 0 1 0 0 3 1.5 1.5 0 0 0 0-3zM3.5 17a2.5 2.5 0 1 1 5 0 2.5 2.5 0 0 1-5 0zM18 5.5a1.5 1.5 0 1 1 0 3 1.5 1.5 0 0 1 0-3zM20.5 7a2.5 2.5 0 1 0-5 0 2.5 2.5 0 0 0 5 0z" clip-rule="evenodd"></path><path fill="#000" fill-rule="evenodd" d="M8 16.5h4v1H8v-1zm8-10h-4v1h4v-1zm-5.146 3.646 3 3-.707.708-3-3 .707-.708z" clip-rule="evenodd"></path></svg>